<svg xmlns="http://www.w3.org/2000/svg" width="1024" height="2048" viewBox="0 0 1024 2048">
<path d="M 82 1638 C 82 1649.046 73.046 1658 62 1658 C 50.954 1658 42 1649.046 42 1638 L 42 238 C 42 226.954 50.954 218 62 218 C 73.046 218 82 226.954 82 238 Z" />
<path d="M 62 258 C 50.954 258 42 249.046 42 238 C 42 226.954 50.954 218 62 218 L 512 218 C 523.046 218 532 226.954 532 238 C 532 249.046 523.046 258 512 258 Z" />
<path d="M 62 958 C 50.954 958 42 949.046 42 938 C 42 926.954 50.954 918 62 918 L 612 918 C 623.046 918 632 926.954 632 938 C 632 949.046 623.046 958 612 958 Z" />
<path d="M 62 1658 C 50.954 1658 42 1649.046 42 1638 C 42 1626.954 50.954 1618 62 1618 L 612 1618 C 623.046 1618 632 1626.954 632 1638 C 632 1649.046 623.046 1658 612 1658 Z" />
</svg>