<svg xmlns="http://www.w3.org/2000/svg" width="1024" height="2048" viewBox="0 0 1024 2048">
<path d="M 30.835 1644.727 C 27.12 1655.129 15.675 1660.55 5.273 1656.835 C -5.129 1653.12 -10.55 1641.675 -6.835 1631.273 L 493.165 231.273 C 496.88 220.871 508.325 215.45 518.727 219.165 C 529.129 222.88 534.55 234.325 530.835 244.727 Z" />
<path d="M 493.165 244.727 C 489.45 234.325 494.871 222.88 505.273 219.165 C 515.675 215.45 527.12 220.871 530.835 231.273 L 1030.835 1631.273 C 1034.55 1641.675 1029.129 1653.12 1018.727 1656.835 C 1008.325 1660.55 996.88 1655.129 993.165 1644.727 Z" />
<path d="M 232 1058 C 220.954 1058 212 1049.046 212 1038 C 212 1026.954 220.954 1018 232 1018 L 792 1018 C 803.046 1018 812 1026.954 812 1038 C 812 1049.046 803.046 1058 792 1058 Z" />
</svg>