<svg xmlns="http://www.w3.org/2000/svg" width="1024" height="2048" viewBox="0 0 1024 2048">
<path d="M 2.583 1682.637 C 0.725 1687.838 3.436 1693.56 8.637 1695.417 C 13.838 1697.275 19.56 1694.564 21.417 1689.363 L 521.417 289.363 C 523.275 284.162 520.564 278.44 515.363 276.583 C 510.162 274.725 504.44 277.436 502.583 282.637 Z" fill="black" />
<path d="M 521.417 282.637 C 519.56 277.436 513.838 274.725 508.637 276.583 C 503.436 278.44 500.725 284.162 502.583 289.363 L 1002.583 1689.363 C 1004.44 1694.564 1010.162 1697.275 1015.363 1695.417 C 1020.564 1693.56 1023.275 1687.838 1021.417 1682.637 Z" fill="black" />
<path d="M 232 1076 C 226.477 1076 222 1080.477 222 1086 C 222 1091.523 226.477 1096 232 1096 L 792 1096 C 797.523 1096 802 1091.523 802 1086 C 802 1080.477 797.523 1076 792 1076 Z" fill="black" />
</svg>